<svg xmlns="http://www.w3.org/2000/svg" version="1.1" xmlns:xlink="http://www.w3.org/1999/xlink" width="794.9961383155988" height="200" viewBox="0.09440000355243683 9.806922912597656 129.0218048095703 24.97420883178711"><path d="M8.95 9.92L8.95 9.92Q9.28 9.71 9.67 9.89Q10.06 10.08 10.17 10.54Q10.27 11.00 10.49 11.32Q10.70 11.64 9.84 13.45Q8.98 15.25 8.07 17.42Q7.15 19.59 6.61 20.97Q6.07 22.34 6.29 22.65Q6.50 22.95 7.81 21.97Q9.12 21.00 10.19 20.17Q11.25 19.34 13.11 17.69Q14.96 16.04 15.60 15.58Q16.23 15.12 16.59 15.04Q16.95 14.96 17.45 15.18Q17.95 15.39 18.15 15.74Q18.36 16.09 18.15 16.46Q17.95 16.82 17.56 17.28Q17.17 17.73 16.46 18.06Q15.74 18.38 14.89 19.16Q14.04 19.94 13.68 20.15Q13.32 20.35 12.43 21.18Q11.54 22.01 9.85 23.18Q8.16 24.36 10.07 25.52Q11.97 26.68 12.65 27.07Q13.32 27.46 13.79 27.57Q14.26 27.68 14.65 27.85Q15.04 28.03 15.24 28.27Q15.45 28.52 15.14 28.77Q14.82 29.02 14.39 29.05Q13.96 29.08 13.08 29.05Q12.19 29.02 11.51 28.74Q10.84 28.46 10.10 28.10Q9.36 27.73 8.75 27.25Q8.14 26.76 7.78 26.57Q7.42 26.39 6.46 25.68Q5.51 24.98 5.20 25.12Q4.88 25.25 4.43 26.90Q3.98 28.55 2.72 31.54Q1.46 34.53 0.93 34.72Q0.39 34.90 0.21 34.55Q0.04 34.20 0.12 33.35Q0.20 32.50 0.62 31.37Q1.04 30.23 1.40 29.02Q1.76 27.81 2.74 25.01Q3.73 22.21 3.95 21.88Q4.16 21.56 4.48 20.78Q4.80 20 5.30 18.30Q5.80 16.60 6.15 15.89Q6.50 15.18 6.96 14.04Q7.42 12.91 7.53 12.48Q7.64 12.05 7.82 11.48Q8.01 10.92 8.32 10.53Q8.63 10.14 8.95 9.92ZM22.54 21.66L22.54 21.66Q22.99 21.54 23.53 21.62Q24.06 21.70 24.38 21.95Q24.71 22.21 25 22.95Q25.29 23.69 24.74 23.95Q24.18 24.20 23.73 23.77Q23.28 23.34 22.79 23.59Q22.30 23.85 21.83 24.11Q21.35 24.38 20.64 24.94Q19.94 25.51 19.20 26.39Q18.46 27.27 18.38 27.51Q18.30 27.75 18.76 27.44Q19.22 27.13 20.17 26.49Q21.11 25.86 22.55 25.20Q23.98 24.53 24.37 24.68Q24.75 24.82 25.02 25.21Q25.29 25.61 25.33 25.89Q25.37 26.17 25.24 26.34Q25.12 26.50 24.95 27.09Q24.79 27.68 24.98 28.22Q25.18 28.77 25.48 28.97Q25.78 29.18 26.31 29.09Q26.84 29.00 27.61 28.29Q28.38 27.58 27.54 28.62Q26.70 29.67 26.21 29.95Q25.72 30.23 25.45 30.22Q25.18 30.21 24.74 30.05Q24.30 29.88 23.91 29.53Q23.52 29.18 23.29 28.67Q23.07 28.16 22.99 27.92Q22.91 27.68 22.63 27.38Q22.34 27.09 21.93 27.26Q21.52 27.42 20.50 28.16Q19.47 28.91 18.58 29.38Q17.70 29.86 16.99 30.05Q16.29 30.23 16.08 30.18Q15.88 30.12 15.63 29.74Q15.39 29.36 15.35 28.91Q15.31 28.46 15.48 28.00Q15.64 27.54 16.73 26.16Q17.81 24.79 18.82 23.91Q19.82 23.03 20.96 22.41Q22.09 21.80 22.54 21.66ZM30.20 21.95L30.20 21.95Q30.61 21.76 31.24 22.03Q31.88 22.30 31.51 23.05Q31.15 23.79 30.33 25.50Q29.51 27.21 30.17 26.44Q30.82 25.66 31.75 24.86Q32.68 24.06 33.09 23.83Q33.50 23.59 33.97 23.48Q34.45 23.36 35.06 23.54Q35.66 23.71 36.09 24.52Q36.52 25.33 36.55 27.20Q36.58 29.06 37.47 29.02Q38.36 28.98 39.20 28.37Q40.04 27.75 40.45 27.12Q40.86 26.48 40.80 26.78Q40.74 27.07 40.35 27.64Q39.96 28.20 38.69 29.39Q37.42 30.59 36.49 30.61Q35.57 30.63 35.15 29.86Q34.73 29.10 34.60 27.43Q34.47 25.76 34.16 25.73Q33.85 25.70 32.79 26.36Q31.74 27.01 30.86 28.07Q29.98 29.12 29.42 29.85Q28.87 30.59 28.42 30.74Q27.97 30.90 27.69 30.51Q27.40 30.12 27.49 29.55Q27.58 28.98 27.83 27.81Q28.09 26.64 28.55 25.34Q29.02 24.04 28.34 24.49Q27.66 24.94 26.67 25.85Q25.68 26.76 27.37 24.99Q29.06 23.22 29.25 22.93Q29.43 22.64 29.61 22.39Q29.79 22.15 30.20 21.95ZM45.49 21.66L45.49 21.66Q45.94 21.54 46.47 21.62Q47.01 21.70 47.33 21.95Q47.66 22.21 47.95 22.95Q48.24 23.69 47.69 23.95Q47.13 24.20 46.68 23.77Q46.23 23.34 45.74 23.59Q45.25 23.85 44.78 24.11Q44.30 24.38 43.59 24.94Q42.89 25.51 42.15 26.39Q41.41 27.27 41.33 27.51Q41.25 27.75 41.71 27.44Q42.17 27.13 43.12 26.49Q44.06 25.86 45.50 25.20Q46.93 24.53 47.31 24.68Q47.70 24.82 47.97 25.21Q48.24 25.61 48.28 25.89Q48.32 26.17 48.19 26.34Q48.07 26.50 47.90 27.09Q47.73 27.68 47.93 28.22Q48.13 28.77 48.43 28.97Q48.73 29.18 49.26 29.09Q49.79 29.00 50.56 28.29Q51.33 27.58 50.49 28.62Q49.65 29.67 49.16 29.95Q48.67 30.23 48.40 30.22Q48.13 30.21 47.69 30.05Q47.25 29.88 46.86 29.53Q46.46 29.18 46.24 28.67Q46.02 28.16 45.94 27.92Q45.86 27.68 45.58 27.38Q45.29 27.09 44.88 27.26Q44.47 27.42 43.45 28.16Q42.42 28.91 41.53 29.38Q40.64 29.86 39.94 30.05Q39.24 30.23 39.03 30.18Q38.83 30.12 38.58 29.74Q38.34 29.36 38.30 28.91Q38.26 28.46 38.43 28.00Q38.59 27.54 39.68 26.16Q40.76 24.79 41.77 23.91Q42.77 23.03 43.91 22.41Q45.04 21.80 45.49 21.66ZM56.52 15.55L56.52 15.55Q56.95 15.90 57.04 17.08Q57.13 18.26 57.85 19.38Q58.57 20.51 59.55 21.17Q60.53 21.84 61.34 22.11Q62.15 22.38 61.29 22.24Q60.43 22.09 59.58 21.55Q58.73 21.02 57.75 19.95Q56.78 18.89 56.33 18.39Q55.88 17.89 55.69 17.83Q55.51 17.77 55.38 17.74Q55.25 17.71 54.79 17.35Q54.34 16.99 54.46 16.46Q54.59 15.94 54.80 15.68Q55.02 15.43 55.56 15.30Q56.09 15.18 56.52 15.55ZM53.40 21.46L53.40 21.46Q53.83 21.37 54.38 21.52Q54.94 21.68 54.58 22.66Q54.22 23.63 53.79 25.20Q53.36 26.76 52.98 27.73Q52.60 28.71 52.13 29.42Q51.66 30.14 51.23 30.20Q50.80 30.25 50.63 30.17Q50.47 30.08 50.61 29.26Q50.74 28.44 51.18 26.75Q51.62 25.06 52.01 23.81Q52.40 22.56 52.02 22.53Q51.64 22.50 52.31 22.03Q52.99 21.56 53.40 21.46ZM71.84 9.92L71.84 9.92Q72.17 9.71 72.56 9.89Q72.95 10.08 73.06 10.54Q73.16 11.00 73.38 11.32Q73.59 11.64 72.73 13.45Q71.88 15.25 70.96 17.42Q70.04 19.59 69.50 20.97Q68.96 22.34 69.18 22.65Q69.39 22.95 70.70 21.97Q72.01 21.00 73.08 20.17Q74.14 19.34 76.00 17.69Q77.85 16.04 78.49 15.58Q79.12 15.12 79.48 15.04Q79.84 14.96 80.34 15.18Q80.84 15.39 81.04 15.74Q81.25 16.09 81.04 16.46Q80.84 16.82 80.45 17.28Q80.06 17.73 79.35 18.06Q78.63 18.38 77.78 19.16Q76.93 19.94 76.57 20.15Q76.21 20.35 75.32 21.18Q74.43 22.01 72.74 23.18Q71.05 24.36 72.96 25.52Q74.86 26.68 75.54 27.07Q76.21 27.46 76.68 27.57Q77.15 27.68 77.54 27.85Q77.93 28.03 78.13 28.27Q78.34 28.52 78.03 28.77Q77.71 29.02 77.29 29.05Q76.86 29.08 75.97 29.05Q75.08 29.02 74.40 28.74Q73.73 28.46 72.99 28.10Q72.25 27.73 71.64 27.25Q71.04 26.76 70.67 26.57Q70.31 26.39 69.36 25.68Q68.40 24.98 68.09 25.12Q67.77 25.25 67.32 26.90Q66.88 28.55 65.62 31.54Q64.36 34.53 63.82 34.72Q63.28 34.90 63.11 34.55Q62.93 34.20 63.01 33.35Q63.09 32.50 63.51 31.37Q63.93 30.23 64.29 29.02Q64.65 27.81 65.63 25.01Q66.62 22.21 66.84 21.88Q67.05 21.56 67.37 20.78Q67.70 20 68.19 18.30Q68.69 16.60 69.04 15.89Q69.39 15.18 69.85 14.04Q70.31 12.91 70.42 12.48Q70.53 12.05 70.71 11.48Q70.90 10.92 71.21 10.53Q71.52 10.14 71.84 9.92ZM86.66 23.26L86.66 23.26Q87.07 23.05 87.37 23.11Q87.68 23.16 87.79 23.39Q87.91 23.61 87.56 25.09Q87.21 26.56 87.09 27.60Q86.97 28.63 87.29 29.05Q87.60 29.47 88.37 29.36Q89.14 29.24 90.04 28.32Q90.94 27.40 90.24 28.23Q89.55 29.06 88.96 29.73Q88.36 30.39 87.91 30.57Q87.46 30.74 86.87 30.64Q86.27 30.55 85.90 30.18Q85.53 29.80 85.31 29.29Q85.10 28.77 85.27 28.02Q85.45 27.27 85.50 26.72Q85.55 26.17 85.06 26.78Q84.57 27.38 83.86 28.10Q83.14 28.81 82.34 29.36Q81.54 29.90 81.08 30.06Q80.63 30.21 80.17 30.28Q79.71 30.35 79.32 30.12Q78.93 29.88 78.83 29.38Q78.73 28.89 79.02 27.90Q79.32 26.91 80.01 25.21Q80.70 23.52 79.61 23.40Q78.52 23.28 77.97 22.92Q77.42 22.56 78.63 23.02Q79.84 23.48 80.31 22.93Q80.78 22.38 81.18 22.29Q81.58 22.19 81.94 22.32Q82.30 22.46 82.41 22.80Q82.52 23.14 82.37 23.61Q82.23 24.08 81.38 26.07Q80.53 28.07 81.33 27.83Q82.13 27.60 84.20 25.53Q86.27 23.46 86.66 23.26ZM90.96 22.01L90.96 22.01Q91.70 21.00 92.17 21.04Q92.64 21.07 92.77 21.43Q92.91 21.78 93.01 22.08Q93.11 22.38 93.20 22.96Q93.30 23.54 92.41 25.20Q91.52 26.86 92.54 25.62Q93.55 24.38 94.28 24.07Q95 23.77 95.61 24.07Q96.21 24.38 96.37 24.80Q96.52 25.23 96.56 25.78Q96.60 26.33 96.72 26.41Q96.84 26.48 98.01 25.23Q99.18 23.98 100.07 23.58Q100.96 23.18 101.54 23.42Q102.13 23.65 102.57 24.34Q103.01 25.02 103.71 26.33Q104.41 27.64 105.17 28.25Q105.92 28.87 106.50 28.98Q107.09 29.10 108.54 28.35Q109.98 27.60 109.18 28.07Q108.38 28.54 107.57 28.88Q106.76 29.22 106.43 29.40Q106.09 29.59 105.52 29.73Q104.94 29.86 104.43 29.61Q103.93 29.36 103.46 28.96Q102.99 28.55 102.29 27.63Q101.58 26.70 101.28 26.25Q100.98 25.80 100.53 25.88Q100.08 25.96 99.59 26.38Q99.10 26.80 98.25 27.58Q97.40 28.36 96.92 29.22Q96.45 30.08 96.35 30.32Q96.25 30.57 95.84 31.01Q95.43 31.45 95.06 31.34Q94.69 31.23 94.52 30.95Q94.36 30.66 94.49 29.94Q94.63 29.22 94.72 28.55Q94.80 27.89 94.85 27.11Q94.90 26.33 94.39 26.28Q93.89 26.23 92.71 27.39Q91.52 28.55 91.21 29.20Q90.90 29.84 90.71 30.12Q90.53 30.39 90.32 30.55Q90.12 30.70 89.50 30.51Q88.89 30.31 88.81 30Q88.73 29.69 89.10 28.73Q89.47 27.77 90.08 25.78Q90.68 23.79 90.92 23.26Q91.15 22.73 87.67 25.18Q84.18 27.62 85.71 26.37Q87.25 25.12 88.73 24.07Q90.21 23.03 90.96 22.01ZM112.97 21.66L112.97 21.66Q113.42 21.54 113.96 21.62Q114.49 21.70 114.81 21.95Q115.14 22.21 115.43 22.95Q115.72 23.69 115.17 23.95Q114.61 24.20 114.16 23.77Q113.71 23.34 113.22 23.59Q112.73 23.85 112.26 24.11Q111.78 24.38 111.07 24.94Q110.37 25.51 109.63 26.39Q108.89 27.27 108.81 27.51Q108.73 27.75 109.19 27.44Q109.65 27.13 110.60 26.49Q111.54 25.86 112.98 25.20Q114.41 24.53 114.79 24.68Q115.18 24.82 115.45 25.21Q115.72 25.61 115.76 25.89Q115.80 26.17 115.67 26.34Q115.55 26.50 115.38 27.09Q115.21 27.68 115.41 28.22Q115.61 28.77 115.91 28.97Q116.21 29.18 116.74 29.09Q117.27 29.00 118.04 28.29Q118.81 27.58 117.97 28.62Q117.13 29.67 116.64 29.95Q116.15 30.23 115.88 30.22Q115.61 30.21 115.17 30.05Q114.73 29.88 114.34 29.53Q113.95 29.18 113.72 28.67Q113.50 28.16 113.42 27.92Q113.34 27.68 113.06 27.38Q112.77 27.09 112.36 27.26Q111.95 27.42 110.93 28.16Q109.90 28.91 109.01 29.38Q108.13 29.86 107.42 30.05Q106.72 30.23 106.51 30.18Q106.31 30.12 106.06 29.74Q105.82 29.36 105.78 28.91Q105.74 28.46 105.91 28.00Q106.07 27.54 107.16 26.16Q108.24 24.79 109.25 23.91Q110.25 23.03 111.39 22.41Q112.52 21.80 112.97 21.66ZM119.08 24.30L119.08 24.30Q119.79 21.58 120.44 21.64Q121.09 21.70 121.43 22.23Q121.76 22.75 121.36 23.53Q120.96 24.30 121.28 24.25Q121.60 24.20 122.13 23.86Q122.66 23.52 123.13 23.31Q123.61 23.11 123.91 23.05Q124.20 22.99 125.03 23.24Q125.86 23.50 126.60 23.96Q127.34 24.41 128.56 24.03Q129.79 23.65 128.30 24.29Q126.82 24.92 125.26 24.88Q123.71 24.84 122.86 25.25Q122.01 25.66 121.43 26.16Q120.84 26.66 120.34 27.80Q119.84 28.95 119.58 29.73Q119.32 30.51 119.11 31.01Q118.91 31.50 118.27 31.53Q117.64 31.56 117.43 31.07Q117.23 30.59 117.33 30.44Q117.44 30.29 117.92 28.65Q118.40 27.01 119.08 24.30Z" fill="black"></path></svg>